<svg xmlns="http://www.w3.org/2000/svg" width="19" height="18" viewBox="0 0 19 18" fill="none">
  <path d="M9.91601 4.15385C10.7285 4.15385 11.7469 3.60458 12.3534 2.87222C12.9027 2.20852 13.3032 1.28163 13.3032 0.354736C13.3032 0.228862 13.2917 0.102988 13.2688 0C12.3648 0.0343293 11.2777 0.606485 10.6255 1.37317C10.1105 1.95677 9.64137 2.87222 9.64137 3.81055C9.64137 3.94787 9.66426 4.08519 9.6757 4.13096C9.73291 4.1424 9.82446 4.15385 9.91601 4.15385ZM7.05523 18C8.16521 18 8.65726 17.2562 10.0419 17.2562C11.4494 17.2562 11.7583 17.9771 12.9942 17.9771C14.2072 17.9771 15.0196 16.8557 15.7863 15.7572C16.6446 14.4984 16.9993 13.2626 17.0222 13.2053C16.9421 13.1825 14.6191 12.2327 14.6191 9.56643C14.6191 7.25493 16.45 6.2136 16.553 6.1335C15.34 4.39415 13.4977 4.34838 12.9942 4.34838C11.6325 4.34838 10.5225 5.17228 9.82446 5.17228C9.06921 5.17228 8.07367 4.39415 6.89503 4.39415C4.65218 4.39415 2.375 6.24793 2.375 9.74952C2.375 11.9237 3.22179 14.2238 4.26311 15.7114C5.15567 16.9701 5.9338 18 7.05523 18Z" fill="#555555"/>
</svg>