<svg width="20" height="20" viewBox="0 0 20 20" fill="none" xmlns="http://www.w3.org/2000/svg">
<mask id="mask0_211_17867" style="mask-type:alpha" maskUnits="userSpaceOnUse" x="0" y="0" width="20" height="20">
<rect width="20" height="20" fill="#D9D9D9"/>
</mask>
<g mask="url(#mask0_211_17867)">
<path d="M14.4739 11.5772C14.256 11.2311 14.0173 10.8964 13.7706 10.568C12.4304 8.78383 9.0757 7.70142 6.61972 10.1304C5.40801 11.329 4.80543 12.8241 4.46702 14.3961C4.08844 16.1549 6.12754 17.6778 7.90417 17.0268C8.5017 16.8078 9.07091 16.5142 9.64322 16.2355C10.0093 16.0572 10.3609 16.0291 10.72 16.2256C10.8472 16.2952 10.9682 16.3776 11.0855 16.4627C12.1146 17.2072 13.225 17.2451 14.3753 16.7853C15.1345 16.4819 15.5827 15.9167 15.7456 15.1466C15.8757 14.5318 15.7973 13.9403 15.4282 13.1534C15.1937 12.7641 14.8435 12.1655 14.4736 11.5779L14.4739 11.5772Z" fill="#0FD380"/>
<path d="M14.6474 3.6567C13.8522 2.47205 12.3669 2.31488 11.3217 3.3052C10.4312 4.14903 10.1584 5.60667 10.6844 6.78834C10.7217 6.86152 10.7671 6.95783 10.8188 7.05094C11.5602 8.38021 13.2478 8.58803 14.3115 7.48146C15.2844 6.46974 15.429 4.82053 14.6479 3.65649L14.6474 3.6567Z" fill="#0FD380"/>
<path d="M8.70857 7.15221C9.48411 5.89577 9.12602 4.06428 7.92746 3.15664C6.81454 2.31321 5.35076 2.60828 4.70291 3.81561C4.22141 4.71182 4.25813 5.62636 4.56232 6.38019C4.84991 7.0161 5.10423 7.34949 5.49091 7.66403C6.5576 8.53167 7.99921 8.30207 8.70879 7.1527L8.70857 7.15221Z" fill="#0FD380"/>
<path d="M5.06183 10.5635C5.36098 9.34389 4.61852 7.91385 3.42339 7.40783C2.33459 6.94656 1.19678 7.44722 0.859223 8.54059C0.66686 9.16425 0.735933 9.77226 1.08127 10.5465C1.22176 10.8745 1.56539 11.2895 2.03723 11.6046C3.27023 12.4274 4.7284 11.9242 5.06183 10.5635Z" fill="#0FD380"/>
<path d="M17.1836 7.06547C15.4709 7.17096 14.1796 9.17731 14.8549 10.6839C15.2339 11.5299 16.0636 11.9242 16.994 11.701C18.1301 11.4282 19.0642 10.3399 19.1028 9.17005C19.1149 8.80402 19.0368 8.41303 18.9012 8.06927C18.639 7.40282 17.9279 7.01944 17.1833 7.06499L17.1836 7.06547Z" fill="#0FD380"/>
</g>
</svg>
